<?xml version="1.0" encoding="utf-8"?>
<!-- created with bpmn-js / http://bpmn.io -->
<!DOCTYPE svg PUBLIC "-//W3C//DTD SVG 1.1//EN" "http://www.w3.org/Graphics/SVG/1.1/DTD/svg11.dtd">
<svg xmlns="http://www.w3.org/2000/svg" xmlns:xlink="http://www.w3.org/1999/xlink" width="1080" height="280" viewBox="155 85 1080 280" version="1.1"><defs><pattern id="djs-grid-pattern-601407" width="10" height="10" patternUnits="userSpaceOnUse"><circle cx="0.5" cy="0.5" r="0.5" style="fill: rgb(204, 204, 204);"/></pattern></defs><g class="djs-group"><g class="djs-element djs-shape" data-element-id="Participant_004ol5h" transform="matrix(1, 0, 0, 1, 160, 90)" style="display: block;"><g class="djs-visual"><rect x="0" y="0" width="1070" height="270" rx="0" ry="0" style="stroke-linecap: round; stroke-linejoin: round; stroke: rgb(34, 36, 42); stroke-width: 1.5px; fill: white; fill-opacity: 0.95;"/><path style="fill: none; stroke-linecap: round; stroke-linejoin: round; stroke: rgb(34, 36, 42); stroke-width: 1.5px;" d="M30,0L30,270"/><text style="font-family: Arial, sans-serif; font-size: 12px; font-weight: normal; fill: rgb(34, 36, 42);" lineHeight="1.2" class="djs-label" transform="matrix(-1.83697e-16, -1, 1, -1.83697e-16, 0, 270)"><tspan x="74.66666793823242" y="18.6">Administrator Systemu</tspan></text></g><rect x="-5" y="-5" rx="4" width="1080" height="280" style="fill: none;" class="djs-outline"/><rect style="fill: none; stroke-opacity: 0; stroke: white; stroke-width: 15px;" class="djs-hit djs-hit-no-move" x="0" y="0" width="1070" height="270"/><rect style="fill: none; stroke-opacity: 0; stroke: white; stroke-width: 15px;" class="djs-hit djs-hit-click-stroke" x="0" y="0" width="1070" height="270"/><rect style="fill: none; stroke-opacity: 0; stroke: white; stroke-width: 15px;" class="djs-hit djs-hit-all" x="0" y="0" width="30" height="270"/></g><g class="djs-children"><g class="djs-group"><g class="djs-element djs-shape" data-element-id="Event_1lcehek" transform="matrix(1, 0, 0, 1, 232, 202)" style="display: block;"><g class="djs-visual"><circle cx="18" cy="18" r="18" style="stroke-linecap: round; stroke-linejoin: round; stroke: rgb(34, 36, 42); stroke-width: 2px; fill: white; fill-opacity: 0.95;"/><circle cx="18" cy="18" r="11" style="stroke-linecap: round; stroke-linejoin: round; stroke: rgb(34, 36, 42); stroke-width: 2px; fill: white;"/><path style="fill: none; stroke-linecap: round; stroke-linejoin: round; stroke: rgb(34, 36, 42); stroke-width: 2px;" d="M 18,18 l 2.25,-7.5 m -2.25,7.5 l 5.25,1.5 "/><path style="fill: none; stroke-linecap: round; stroke-linejoin: round; stroke: rgb(34, 36, 42); stroke-width: 1px;" transform="rotate(0,18,18)" d="M 18,18 m 0,7.5 l -0,2.25 "/><path style="fill: none; stroke-linecap: round; stroke-linejoin: round; stroke: rgb(34, 36, 42); stroke-width: 1px;" transform="rotate(30,18,18)" d="M 18,18 m 0,7.5 l -0,2.25 "/><path style="fill: none; stroke-linecap: round; stroke-linejoin: round; stroke: rgb(34, 36, 42); stroke-width: 1px;" transform="rotate(60,18,18)" d="M 18,18 m 0,7.5 l -0,2.25 "/><path style="fill: none; stroke-linecap: round; stroke-linejoin: round; stroke: rgb(34, 36, 42); stroke-width: 1px;" transform="rotate(90,18,18)" d="M 18,18 m 0,7.5 l -0,2.25 "/><path style="fill: none; stroke-linecap: round; stroke-linejoin: round; stroke: rgb(34, 36, 42); stroke-width: 1px;" transform="rotate(120,18,18)" d="M 18,18 m 0,7.5 l -0,2.25 "/><path style="fill: none; stroke-linecap: round; stroke-linejoin: round; stroke: rgb(34, 36, 42); stroke-width: 1px;" transform="rotate(150,18,18)" d="M 18,18 m 0,7.5 l -0,2.25 "/><path style="fill: none; stroke-linecap: round; stroke-linejoin: round; stroke: rgb(34, 36, 42); stroke-width: 1px;" transform="rotate(180,18,18)" d="M 18,18 m 0,7.5 l -0,2.25 "/><path style="fill: none; stroke-linecap: round; stroke-linejoin: round; stroke: rgb(34, 36, 42); stroke-width: 1px;" transform="rotate(210,18,18)" d="M 18,18 m 0,7.5 l -0,2.25 "/><path style="fill: none; stroke-linecap: round; stroke-linejoin: round; stroke: rgb(34, 36, 42); stroke-width: 1px;" transform="rotate(240,18,18)" d="M 18,18 m 0,7.5 l -0,2.25 "/><path style="fill: none; stroke-linecap: round; stroke-linejoin: round; stroke: rgb(34, 36, 42); stroke-width: 1px;" transform="rotate(270,18,18)" d="M 18,18 m 0,7.5 l -0,2.25 "/><path style="fill: none; stroke-linecap: round; stroke-linejoin: round; stroke: rgb(34, 36, 42); stroke-width: 1px;" transform="rotate(300,18,18)" d="M 18,18 m 0,7.5 l -0,2.25 "/><path style="fill: none; stroke-linecap: round; stroke-linejoin: round; stroke: rgb(34, 36, 42); stroke-width: 1px;" transform="rotate(330,18,18)" d="M 18,18 m 0,7.5 l -0,2.25 "/></g><rect style="fill: none; stroke-opacity: 0; stroke: white; stroke-width: 15px;" class="djs-hit djs-hit-all" x="0" y="0" width="36" height="36"/><circle cx="18" cy="18" r="23" style="fill: none;" class="djs-outline"/></g></g><g class="djs-group"><g class="djs-element djs-shape" data-element-id="Activity_1o775hf" transform="matrix(1, 0, 0, 1, 820, 180)" style="display: block;"><g class="djs-visual"><rect x="0" y="0" width="100" height="80" rx="10" ry="10" style="stroke-linecap: round; stroke-linejoin: round; stroke: rgb(34, 36, 42); stroke-width: 2px; fill: white; fill-opacity: 0.95;"/><text style="font-family: Arial, sans-serif; font-size: 12px; font-weight: normal; fill: rgb(34, 36, 42);" lineHeight="1.2" class="djs-label"><tspan x="22.33333396911621" y="14.799999999999999">Zapisanie </tspan><tspan x="20.66666603088379" y="29.199999999999996">dokonanej </tspan><tspan x="11" y="43.599999999999994">konserwacji w </tspan><tspan x="23" y="57.99999999999999">dzienniku </tspan><tspan x="18.66666603088379" y="72.39999999999999">konserwacji</tspan></text></g><rect style="fill: none; stroke-opacity: 0; stroke: white; stroke-width: 15px;" class="djs-hit djs-hit-all" x="0" y="0" width="100" height="80"/><rect x="-5" y="-5" rx="14" width="110" height="90" style="fill: none;" class="djs-outline"/></g></g><g class="djs-group"><g class="djs-element djs-shape" data-element-id="Event_0ukoos6" transform="matrix(1, 0, 0, 1, 1042, 202)" style="display: block;"><g class="djs-visual"><circle cx="18" cy="18" r="18" style="stroke-linecap: round; stroke-linejoin: round; stroke: rgb(34, 36, 42); stroke-width: 4px; fill: white; fill-opacity: 0.95;"/></g><rect style="fill: none; stroke-opacity: 0; stroke: white; stroke-width: 15px;" class="djs-hit djs-hit-all" x="0" y="0" width="36" height="36"/><circle cx="18" cy="18" r="24" style="fill: none;" class="djs-outline"/></g></g><g class="djs-group"><g class="djs-element djs-shape" data-element-id="Activity_077wjfw" transform="matrix(1, 0, 0, 1, 360, 180)" style="display: block;"><g class="djs-visual"><rect x="0" y="0" width="100" height="80" rx="10" ry="10" style="stroke-linecap: round; stroke-linejoin: round; stroke: rgb(34, 36, 42); stroke-width: 2px; fill: white; fill-opacity: 0.95;"/><text style="font-family: Arial, sans-serif; font-size: 12px; font-weight: normal; fill: rgb(34, 36, 42);" lineHeight="1.2" class="djs-label"><tspan x="13.666667938232422" y="29.200000000000003">Sprawdzenie </tspan><tspan x="32.66666603088379" y="43.6">logów </tspan><tspan x="14" y="58">systemowych</tspan></text><rect x="0" y="0" width="14" height="14" rx="0" ry="0" style="stroke-linecap: round; stroke-linejoin: round; stroke: rgb(34, 36, 42); stroke-width: 1px; fill: white;" transform="matrix(1, 0, 0, 1, 42.5, 60)"/><path style="fill: white; stroke-linecap: round; stroke-linejoin: round; stroke: rgb(34, 36, 42); stroke-width: 2px;" data-marker="sub-process" d="m42.5,60 m 7,2 l 0,10 m -5,-5 l 10,0"/></g><rect x="-5" y="-5" rx="14" width="110" height="90" style="fill: none;" class="djs-outline"/><rect style="fill: none; stroke-opacity: 0; stroke: white; stroke-width: 15px;" class="djs-hit djs-hit-all" x="0" y="0" width="100" height="80"/></g></g><g class="djs-group"><g class="djs-element djs-shape" data-element-id="Activity_054xhso" transform="matrix(1, 0, 0, 1, 580, 180)" style="display: block;"><g class="djs-visual"><rect x="0" y="0" width="100" height="80" rx="10" ry="10" style="stroke-linecap: round; stroke-linejoin: round; stroke: rgb(34, 36, 42); stroke-width: 2px; fill: white; fill-opacity: 0.95;"/><text style="font-family: Arial, sans-serif; font-size: 12px; font-weight: normal; fill: rgb(34, 36, 42);" lineHeight="1.2" class="djs-label"><tspan x="13.666667938232422" y="14.799999999999999">Sprawdzenie </tspan><tspan x="33.66666603088379" y="29.199999999999996">stanu </tspan><tspan x="20" y="43.599999999999994">fizycznego </tspan><tspan x="17.333332061767578" y="57.99999999999999">architektury </tspan><tspan x="18.66666603088379" y="72.39999999999999">systemowej</tspan></text><rect x="0" y="0" width="14" height="14" rx="0" ry="0" style="stroke-linecap: round; stroke-linejoin: round; stroke: rgb(34, 36, 42); stroke-width: 1px; fill: white;" transform="matrix(1, 0, 0, 1, 42.5, 60)"/><path style="fill: white; stroke-linecap: round; stroke-linejoin: round; stroke: rgb(34, 36, 42); stroke-width: 2px;" data-marker="sub-process" d="m42.5,60 m 7,2 l 0,10 m -5,-5 l 10,0"/></g><rect x="-5" y="-5" rx="14" width="110" height="90" style="fill: none;" class="djs-outline"/><rect style="fill: none; stroke-opacity: 0; stroke: white; stroke-width: 15px;" class="djs-hit djs-hit-all" x="0" y="0" width="100" height="80"/></g></g><g class="djs-group"><g class="djs-element djs-connection" data-element-id="Flow_1ifttfx" style="display: block;"><g class="djs-visual"><defs><marker id="marker-apsrd9wp4jbc6815iovgfroie" viewBox="0 0 20 20" refX="11" refY="10" markerWidth="10" markerHeight="10" orient="auto"><path d="M 1 5 L 11 10 L 1 15 Z" style="stroke-linecap: round; stroke-linejoin: round; stroke: rgb(34, 36, 42); stroke-width: 1px; fill: rgb(34, 36, 42);"/></marker></defs><path style="fill: none; stroke-linecap: round; stroke-linejoin: round; stroke: rgb(34, 36, 42); stroke-width: 2px; marker-end: url('#marker-apsrd9wp4jbc6815iovgfroie');" data-corner-radius="5" d="M268,220L360,220"/></g><path d="M268,220L360,220" style="fill: none; stroke-opacity: 0; stroke: white; stroke-width: 15px;" class="djs-hit djs-hit-stroke"/><rect x="263" y="215" rx="4" width="102" height="10" style="fill: none;" class="djs-outline"/></g></g><g class="djs-group"><g class="djs-element djs-connection" data-element-id="Flow_03ttgfa" style="display: block;"><g class="djs-visual"><defs><marker id="marker-cqhbo1evcrgm6jq301y7h5075" viewBox="0 0 20 20" refX="11" refY="10" markerWidth="10" markerHeight="10" orient="auto"><path d="M 1 5 L 11 10 L 1 15 Z" style="stroke-linecap: round; stroke-linejoin: round; stroke: rgb(34, 36, 42); stroke-width: 1px; fill: rgb(34, 36, 42);"/></marker></defs><path style="fill: none; stroke-linecap: round; stroke-linejoin: round; stroke: rgb(34, 36, 42); stroke-width: 2px; marker-end: url('#marker-cqhbo1evcrgm6jq301y7h5075');" data-corner-radius="5" d="M680,220L820,220"/></g><path d="M680,220L820,220" style="fill: none; stroke-opacity: 0; stroke: white; stroke-width: 15px;" class="djs-hit djs-hit-stroke"/><rect x="675" y="215" rx="4" width="150" height="10" style="fill: none;" class="djs-outline"/></g></g><g class="djs-group"><g class="djs-element djs-connection" data-element-id="Flow_00rki5r" style="display: block;"><g class="djs-visual"><defs><marker id="marker-co7khnvkkqiihebys2lrxaxru" viewBox="0 0 20 20" refX="11" refY="10" markerWidth="10" markerHeight="10" orient="auto"><path d="M 1 5 L 11 10 L 1 15 Z" style="stroke-linecap: round; stroke-linejoin: round; stroke: rgb(34, 36, 42); stroke-width: 1px; fill: rgb(34, 36, 42);"/></marker></defs><path style="fill: none; stroke-linecap: round; stroke-linejoin: round; stroke: rgb(34, 36, 42); stroke-width: 2px; marker-end: url('#marker-co7khnvkkqiihebys2lrxaxru');" data-corner-radius="5" d="M920,220L1042,220"/></g><path d="M920,220L1042,220" style="fill: none; stroke-opacity: 0; stroke: white; stroke-width: 15px;" class="djs-hit djs-hit-stroke"/><rect x="915" y="215" rx="4" width="132" height="10" style="fill: none;" class="djs-outline"/></g></g><g class="djs-group"><g class="djs-element djs-connection" data-element-id="Flow_152oc3g" style="display: block;"><g class="djs-visual"><defs><marker id="marker-1auehcr428565okcsydg7ag09" viewBox="0 0 20 20" refX="11" refY="10" markerWidth="10" markerHeight="10" orient="auto"><path d="M 1 5 L 11 10 L 1 15 Z" style="stroke-linecap: round; stroke-linejoin: round; stroke: rgb(34, 36, 42); stroke-width: 1px; fill: rgb(34, 36, 42);"/></marker></defs><path style="fill: none; stroke-linecap: round; stroke-linejoin: round; stroke: rgb(34, 36, 42); stroke-width: 2px; marker-end: url('#marker-1auehcr428565okcsydg7ag09');" data-corner-radius="5" d="M460,220L580,220"/></g><path d="M460,220L580,220" style="fill: none; stroke-opacity: 0; stroke: white; stroke-width: 15px;" class="djs-hit djs-hit-stroke"/><rect x="455" y="215" rx="4" width="130" height="10" style="fill: none;" class="djs-outline"/></g></g></g></g><g class="djs-group"><g class="djs-element djs-shape" data-element-id="Event_1lcehek_label" transform="matrix(1, 0, 0, 1, 227, 245)" style="display: block;"><g class="djs-visual"><text style="font-family: Arial, sans-serif; font-size: 11px; font-weight: normal; fill: rgb(34, 36, 42);" lineHeight="1.2" class="djs-label"><tspan x="0" y="9.899999999999999">Co piątek</tspan></text></g><rect style="fill: none; stroke-opacity: 0; stroke: white; stroke-width: 15px;" class="djs-hit djs-hit-all" x="0" y="0" width="47" height="14"/><rect x="-5" y="-5" rx="4" width="57" height="24" style="fill: none;" class="djs-outline"/></g></g></svg>